HIERARCHY
ROOT Hips
{
	OFFSET 0.000000 35.082581 0.000000
	CHANNELS 6 Xposition Yposition Zposition Xrotation Yrotation Zrotation 
	JOINT Spine
	{
		OFFSET 0.000000 6.876099 0.125700
		CHANNELS 3 Xrotation Yrotation Zrotation
		JOINT Spine1
		{
			OFFSET 0.000000 5.730043 0.104720
			CHANNELS 3 Xrotation Yrotation Zrotation
			JOINT Spine1_split
			{
				OFFSET 0.000000 5.730043 0.104720
				CHANNELS 3 Xrotation Yrotation Zrotation
				JOINT Spine2
				{
					OFFSET 0.000000 5.730043 0.104720
					CHANNELS 3 Xrotation Yrotation Zrotation
					JOINT Neck
					{
						OFFSET 0.000000 10.314075 0.188496
						CHANNELS 3 Xrotation Yrotation Zrotation
						JOINT Head
						{
							OFFSET 0.000000 7.643700 -2.377400
							CHANNELS 3 Xrotation Yrotation Zrotation
							JOINT HeadTop_End
							{
								OFFSET 0.000000 43.788605 -13.619600
								CHANNELS 3 Xrotation Yrotation Zrotation
								End Site
								{
									OFFSET 0.000000 0.000000 0.000000
								}
							}
						}
					}
					JOINT LeftShoulder
					{
						OFFSET 2.196100 4.412489 0.087492
						CHANNELS 3 Xrotation Yrotation Zrotation
						JOINT LeftShoulder_split
						{
							OFFSET 2.196100 4.412489 0.087492
							CHANNELS 3 Xrotation Yrotation Zrotation
							JOINT LeftArm
							{
								OFFSET 8.771219 -2.981674 -0.026999
								CHANNELS 3 Xrotation Yrotation Zrotation
								JOINT LeftForeArm
								{
									OFFSET 8.512804 0.000000 -0.000000
									CHANNELS 3 Xrotation Yrotation Zrotation
									JOINT LeftHand
									{
										OFFSET 18.484802 0.000000 -0.000000
										CHANNELS 3 Xrotation Yrotation Zrotation
										JOINT LeftHandThumb1
										{
											OFFSET 2.499420 -1.158070 2.653252
											CHANNELS 3 Xrotation Yrotation Zrotation
											JOINT LeftHandThumb2
											{
												OFFSET 2.370079 -1.368366 1.368366
												CHANNELS 3 Xrotation Yrotation Zrotation
												JOINT LeftHandThumb3
												{
													OFFSET 2.676727 -1.545410 1.545409
													CHANNELS 3 Xrotation Yrotation Zrotation
													JOINT LeftHandThumb4
													{
														OFFSET 1.692226 -0.977005 0.977007
														CHANNELS 3 Xrotation Yrotation Zrotation
														End Site
														{
															OFFSET 0.000000 0.000000 0.000000
														}
													}
												}
											}
										}
										JOINT LeftHandIndex1
										{
											OFFSET 7.924831 -0.457527 2.345128
											CHANNELS 3 Xrotation Yrotation Zrotation
											JOINT LeftHandIndex2
											{
												OFFSET 3.643303 0.000000 0.000000
												CHANNELS 3 Xrotation Yrotation Zrotation
												JOINT LeftHandIndex3
												{
													OFFSET 3.810799 0.000000 0.000000
													CHANNELS 3 Xrotation Yrotation Zrotation
													JOINT LeftHandIndex4
													{
														OFFSET 2.403702 0.000000 0.000000
														CHANNELS 3 Xrotation Yrotation Zrotation
														End Site
														{
															OFFSET 0.000000 0.000000 0.000000
														}
													}
												}
											}
										}
										JOINT LeftHandMiddle1
										{
											OFFSET 8.563995 0.000000 -0.000000
											CHANNELS 3 Xrotation Yrotation Zrotation
											JOINT LeftHandMiddle2
											{
												OFFSET 3.861618 0.000000 0.000000
												CHANNELS 3 Xrotation Yrotation Zrotation
												JOINT LeftHandMiddle3
												{
													OFFSET 3.701603 0.000000 0.000000
													CHANNELS 3 Xrotation Yrotation Zrotation
													JOINT LeftHandMiddle4
													{
														OFFSET 2.322544 0.000000 0.000000
														CHANNELS 3 Xrotation Yrotation Zrotation
														End Site
														{
															OFFSET 0.000000 0.000000 0.000000
														}
													}
												}
											}
										}
										JOINT LeftHandRing1
										{
											OFFSET 8.426460 -0.424637 -3.286992
											CHANNELS 3 Xrotation Yrotation Zrotation
											JOINT LeftHandRing2
											{
												OFFSET 3.126408 0.000000 0.000000
												CHANNELS 3 Xrotation Yrotation Zrotation
												JOINT LeftHandRing3
												{
													OFFSET 3.085026 0.000000 0.000000
													CHANNELS 3 Xrotation Yrotation Zrotation
													JOINT LeftHandRing4
													{
														OFFSET 1.644005 0.000000 0.000000
														CHANNELS 3 Xrotation Yrotation Zrotation
														End Site
														{
															OFFSET 0.000000 0.000000 0.000000
														}
													}
												}
											}
										}
									}
								}
							}
						}
					}
					JOINT RightShoulder
					{
						OFFSET -2.196100 4.412496 0.070690
						CHANNELS 3 Xrotation Yrotation Zrotation
						JOINT RightShoulder_split
						{
							OFFSET -2.196100 4.412496 0.070690
							CHANNELS 3 Xrotation Yrotation Zrotation
							JOINT RightArm
							{
								OFFSET -8.771282 -2.981682 -0.094208
								CHANNELS 3 Xrotation Yrotation Zrotation
								JOINT RightForeArm
								{
									OFFSET -8.494598 0.000000 0.000000
									CHANNELS 3 Xrotation Yrotation Zrotation
									JOINT RightHand
									{
										OFFSET -18.483803 0.000000 0.000001
										CHANNELS 3 Xrotation Yrotation Zrotation
										JOINT RightHandThumb1
										{
											OFFSET -2.527351 -1.008072 2.575253
											CHANNELS 3 Xrotation Yrotation Zrotation
											JOINT RightHandThumb2
											{
												OFFSET -2.321518 -1.340328 1.340329
												CHANNELS 3 Xrotation Yrotation Zrotation
												JOINT RightHandThumb3
												{
													OFFSET -2.657753 -1.534454 1.534455
													CHANNELS 3 Xrotation Yrotation Zrotation
													JOINT RightHandThumb4
													{
														OFFSET -1.807510 -1.043568 1.043567
														CHANNELS 3 Xrotation Yrotation Zrotation
														End Site
														{
															OFFSET 0.000000 0.000000 0.000000
														}
													}
												}
											}
										}
										JOINT RightHandIndex1
										{
											OFFSET -8.811420 0.015533 2.887987
											CHANNELS 3 Xrotation Yrotation Zrotation
											JOINT RightHandIndex2
											{
												OFFSET -3.537502 0.000000 0.000000
												CHANNELS 3 Xrotation Yrotation Zrotation
												JOINT RightHandIndex3
												{
													OFFSET -3.356201 0.000000 0.000000
													CHANNELS 3 Xrotation Yrotation Zrotation
													JOINT RightHandIndex4
													{
														OFFSET -1.933098 0.000000 0.000000
														CHANNELS 3 Xrotation Yrotation Zrotation
														End Site
														{
															OFFSET 0.000000 0.000000 0.000000
														}
													}
												}
											}
										}
										JOINT RightHandMiddle1
										{
											OFFSET -8.178135 0.000000 0.000000
											CHANNELS 3 Xrotation Yrotation Zrotation
											JOINT RightHandMiddle2
											{
												OFFSET -3.901302 0.000000 0.000000
												CHANNELS 3 Xrotation Yrotation Zrotation
												JOINT RightHandMiddle3
												{
													OFFSET -3.909599 0.000000 0.000000
													CHANNELS 3 Xrotation Yrotation Zrotation
													JOINT RightHandMiddle4
													{
														OFFSET -2.376003 0.000000 0.000000
														CHANNELS 3 Xrotation Yrotation Zrotation
														End Site
														{
															OFFSET 0.000000 0.000000 0.000000
														}
													}
												}
											}
										}
										JOINT RightHandRing1
										{
											OFFSET -7.559013 0.014137 -2.865403
											CHANNELS 3 Xrotation Yrotation Zrotation
											JOINT RightHandRing2
											{
												OFFSET -3.449306 0.000000 0.000000
												CHANNELS 3 Xrotation Yrotation Zrotation
												JOINT RightHandRing3
												{
													OFFSET -3.362106 0.000000 0.000000
													CHANNELS 3 Xrotation Yrotation Zrotation
													JOINT RightHandRing4
													{
														OFFSET -2.076401 0.000000 0.000000
														CHANNELS 3 Xrotation Yrotation Zrotation
														End Site
														{
															OFFSET 0.000000 0.000000 0.000000
														}
													}
												}
											}
										}
									}
								}
							}
						}
					}
				}
			}
		}
	}
	JOINT LeftUpLeg
	{
		OFFSET 10.205400 -3.823500 0.155100
		CHANNELS 3 Xrotation Yrotation Zrotation
		JOINT LeftLeg
		{
			OFFSET 0.708757 -12.982077 0.567790
			CHANNELS 3 Xrotation Yrotation Zrotation
			JOINT LeftFoot
			{
				OFFSET -0.708756 -10.717838 -2.184338
				CHANNELS 3 Xrotation Yrotation Zrotation
				JOINT LeftToeBase
				{
					OFFSET 0.108149 -7.191104 7.560241
					CHANNELS 3 Xrotation Yrotation Zrotation
					JOINT LeftToe_End
					{
						OFFSET 0.070230 0.081724 4.490308
						CHANNELS 3 Xrotation Yrotation Zrotation
						End Site
						{
							OFFSET 0.000000 0.000000 0.000000
						}
					}
				}
			}
		}
	}
	JOINT RightUpLeg
	{
		OFFSET -10.205400 -3.823500 0.005500
		CHANNELS 3 Xrotation Yrotation Zrotation
		JOINT RightLeg
		{
			OFFSET -0.708756 -12.982134 0.610632
			CHANNELS 3 Xrotation Yrotation Zrotation
			JOINT RightFoot
			{
				OFFSET 0.708754 -10.717769 -1.945823
				CHANNELS 3 Xrotation Yrotation Zrotation
				JOINT RightToeBase
				{
					OFFSET -0.108140 -7.191069 7.372968
					CHANNELS 3 Xrotation Yrotation Zrotation
					JOINT RightToe_End
					{
						OFFSET -0.070227 0.081735 4.479403
						CHANNELS 3 Xrotation Yrotation Zrotation
						End Site
						{
							OFFSET 0.000000 0.000000 0.000000
						}
					}
				}
			}
		}
	}
}
MOTION
Frames: 5
Frame Time: 0.016667
-1.273953 16.744381 28.011896 20.477882 -24.318685 -5.776181 5.365950 0.467214 0.786924 -5.387909 1.463348 2.228126 0.000000 0.000000 0.000000 -5.408684 1.438960 2.129568 -64.248687 1.118115 14.686594 13.384913 14.022323 -18.292368 0.000001 -0.000000 -0.000001 -18.927004 2.423258 -16.209255 0.000000 0.000000 0.000000 6.399250 13.475603 -49.024058 73.253321 -19.968920 30.111425 -15.140998 22.562560 -4.718124 -0.610188 -6.200753 8.854766 3.159775 21.613953 -1.887056 1.442463 2.915089 3.009422 -0.000004 -0.000001 -0.000002 13.340415 -1.006127 10.837310 -0.167772 0.303303 -30.950541 -0.143978 0.303760 -32.101264 -0.000002 -0.000000 -0.000003 8.497915 -0.331004 -0.760255 0.230667 0.660656 -29.746836 0.443149 0.213129 -44.201965 0.000001 0.000000 -0.000001 6.113350 3.149188 -16.056048 0.047043 0.321374 -29.970412 0.407236 0.819050 -41.985589 -0.000000 0.000002 -0.000002 -18.645056 3.158395 16.723915 0.000000 0.000000 0.000000 7.365363 -4.012487 58.411675 156.201905 144.055766 -156.460701 58.447158 -8.915758 -6.382682 0.630103 8.367623 -11.244486 -0.724221 -13.326713 3.592239 2.095421 -8.839548 -7.437886 -0.000001 0.000000 -0.000002 19.441947 11.173356 -14.416333 -0.119657 -0.321786 16.959145 -0.093985 -0.286858 22.180114 0.000001 0.000000 0.000000 4.337927 2.446819 -5.888750 0.343343 -0.457197 25.813822 0.461087 0.156930 37.968455 -0.000002 0.000000 0.000001 -6.996706 -10.686245 4.645086 0.112034 -0.082036 25.079440 0.440461 -0.472352 32.188503 -0.000000 -0.000000 -0.000001 8.628151 2.835029 1.775741 91.470590 -21.223694 -3.476640 14.123980 -1.343073 -26.798741 -0.676344 0.771624 -0.079989 -0.000001 -0.000002 -0.000000 -6.563363 16.353542 -8.676203 68.928036 14.219159 -14.642119 49.268839 9.758114 24.683361 13.783349 -1.925866 -2.028647 0.000004 -0.000000 -0.000000 
-1.180197 16.726986 28.417511 21.521509 -24.472330 -5.766489 5.321582 0.467662 0.872165 -5.487562 1.423595 2.351744 0.000000 0.000000 0.000000 -5.507087 1.408919 2.254501 -65.359569 0.986972 14.866098 13.903063 14.117399 -18.447578 -0.000003 0.000000 0.000000 -19.123843 2.643945 -15.817962 0.000000 0.000000 0.000000 8.811201 13.503258 -48.194744 72.720102 -20.634413 30.098752 -17.435784 22.649372 -4.324293 -0.741617 -6.713002 8.749661 2.927773 21.139809 -1.929439 1.258411 2.425057 2.900830 -0.000001 0.000003 -0.000003 13.336285 -1.001491 12.126828 -0.169184 0.302489 -29.660960 -0.148759 0.304904 -30.811632 -0.000001 -0.000002 0.000005 8.519023 -0.343214 0.529216 0.223464 0.656155 -28.457170 0.435288 0.210435 -42.912357 0.000002 0.000001 -0.000001 6.127078 3.134686 -14.767298 0.046573 0.312747 -28.680869 0.394200 0.819609 -40.695882 0.000002 -0.000001 0.000001 -18.793146 2.934443 16.971094 0.000000 0.000000 0.000000 7.755222 -2.903531 58.461317 155.010105 141.216251 -155.160615 55.970221 -10.115528 -6.424050 0.621917 8.403535 -11.236672 -0.945197 -12.892614 3.661372 1.958190 -8.371728 -7.350282 -0.000002 0.000002 -0.000000 19.440153 11.172232 -15.590185 -0.120691 -0.320692 15.784917 -0.098460 -0.287082 21.005941 0.000002 -0.000001 -0.000001 4.357209 2.457267 -7.063566 0.337128 -0.452624 24.639610 0.454229 0.160145 36.794332 0.000004 -0.000000 -0.000000 -6.986739 -10.676693 3.472837 0.112283 -0.074164 23.905268 0.428685 -0.470811 31.014339 0.000000 -0.000001 -0.000002 8.675953 2.233766 1.231619 90.082539 -20.560973 -3.234506 14.668419 -1.488469 -27.007519 -0.846334 0.693704 -0.294548 -0.000003 -0.000001 -0.000000 -6.464401 15.722068 -8.584917 68.315395 14.581988 -14.379346 48.575964 9.637755 24.775705 14.198932 -2.845093 -2.132613 -0.000000 0.000001 0.000002 
-1.122336 16.697979 28.802317 22.614473 -24.573694 -5.707979 5.285282 0.493384 0.926048 -5.579766 1.386650 2.467674 0.000000 0.000000 0.000000 -5.597973 1.382296 2.371568 -66.531732 0.851087 14.977232 14.412275 14.182148 -18.577611 0.000001 0.000000 0.000000 -19.324728 2.867690 -15.372828 0.000000 0.000000 0.000000 11.222554 12.997945 -47.136102 70.495878 -22.628980 28.974492 -19.002117 22.383117 -3.511833 -0.855962 -7.156658 8.657854 2.728072 20.728673 -1.967471 1.098268 2.000867 2.805637 -0.000003 -0.000000 -0.000004 13.332686 -0.997549 13.243806 -0.170403 0.301689 -28.543892 -0.152926 0.305683 -29.694514 0.000000 -0.000002 0.000003 8.537479 -0.353294 1.646227 0.217323 0.652139 -27.340045 0.428469 0.207898 -41.795317 0.000001 0.000000 -0.000002 6.139198 3.122432 -13.651069 0.046416 0.305291 -27.563782 0.382879 0.819801 -39.578692 0.000003 -0.000001 -0.000001 -18.954762 2.720322 17.238083 0.000000 0.000000 0.000000 8.007435 -1.543113 58.369007 156.553250 137.723566 -156.028923 51.277563 -11.257138 -6.118200 0.614059 8.437617 -11.229180 -1.155315 -12.479949 3.728705 1.827055 -7.927019 -7.266415 0.000001 0.000005 0.000002 19.438397 11.171130 -16.706479 -0.121720 -0.319673 14.668277 -0.102689 -0.287253 19.889262 -0.000001 -0.000001 0.000003 4.375702 2.466752 -8.180827 0.331324 -0.448184 23.522953 0.447713 0.163360 35.677671 -0.000000 0.000001 0.000001 -6.977133 -10.667880 2.358094 0.112707 -0.066676 22.788663 0.417478 -0.469142 29.897664 -0.000001 -0.000000 0.000000 8.588959 1.419763 0.836628 88.962189 -19.670084 -2.951489 14.963204 -1.550140 -27.291448 -0.743918 0.262948 -0.424641 0.000003 -0.000000 -0.000001 -6.104238 15.141419 -8.593963 67.222476 14.625742 -14.089739 49.073355 9.818674 24.859778 13.688882 -3.427009 -2.677968 -0.000003 0.000000 0.000002 
-1.065568 16.662868 29.215631 23.758171 -24.594418 -5.636751 5.258559 0.523204 0.975348 -5.663060 1.353725 2.575409 0.000000 0.000000 0.000000 -5.679920 1.360144 2.479901 -67.748482 0.721240 15.041656 14.908421 14.198111 -18.680197 -0.000002 -0.000000 0.000002 -19.520757 3.090939 -14.887365 0.000000 0.000000 0.000000 13.533067 12.286166 -45.847351 67.504699 -25.443314 27.159228 -20.419545 21.822111 -2.446606 -0.950533 -7.516265 8.582046 2.566219 20.394933 -1.999377 0.967857 1.656717 2.727520 0.000000 -0.000001 -0.000002 13.329667 -0.994413 14.150508 -0.171354 0.301054 -27.637148 -0.156353 0.306304 -28.787748 -0.000001 -0.000001 0.000002 8.552605 -0.361249 2.552873 0.212467 0.648786 -26.433249 0.422944 0.205780 -40.888524 0.000000 -0.000000 0.000001 6.149227 3.112651 -12.744926 0.046326 0.299223 -26.657035 0.373697 0.819829 -38.671831 0.000002 0.000000 -0.000000 -19.127499 2.546792 17.483017 0.000000 0.000000 0.000000 8.238808 -0.098704 58.067994 160.341751 133.889821 -158.935702 44.865491 -12.163804 -5.670159 0.606817 8.469575 -11.222000 -1.352353 -12.093388 3.793163 1.703554 -7.510275 -7.187296 0.000001 0.000005 0.000000 19.436760 11.170184 -17.752883 -0.122633 -0.318717 13.621597 -0.106671 -0.287204 18.842573 -0.000003 -0.000001 0.000001 4.393228 2.475372 -9.228057 0.325904 -0.443942 22.476235 0.441707 0.166438 34.631013 0.000002 0.000000 0.000000 -6.967931 -10.659768 1.313159 0.113211 -0.059670 21.741926 0.407047 -0.467369 28.850951 -0.000003 -0.000000 0.000000 8.503941 0.410946 0.390919 87.738855 -18.482099 -2.588800 15.271454 -1.618841 -27.822328 -0.513306 -0.349535 -0.436907 0.000002 0.000001 0.000000 -5.688048 14.582929 -8.658750 66.098097 14.391221 -13.782330 50.004819 10.032447 24.737564 12.783058 -3.628891 -3.351684 0.000001 -0.000000 -0.000001 
-1.009470 16.622013 29.652086 24.969625 -24.523154 -5.583419 5.243129 0.543003 1.040503 -5.734337 1.325687 2.674347 0.000000 0.000000 0.000000 -5.749943 1.343237 2.579082 -68.979740 0.603836 15.062032 15.389055 14.174244 -18.750913 -0.000001 0.000001 0.000000 -19.699138 3.311107 -14.383101 0.000000 0.000000 0.000000 15.604009 11.619158 -44.492399 63.822059 -28.749175 24.713755 -21.409248 21.003101 -1.279257 -1.020478 -7.777164 8.525998 2.448791 20.152477 -2.023138 0.872310 1.406772 2.671176 -0.000004 0.000001 -0.000002 13.327458 -0.992140 14.809300 -0.172059 0.300591 -26.978291 -0.158811 0.306727 -28.128894 -0.000000 -0.000000 0.000000 8.563633 -0.366883 3.211698 0.208903 0.646267 -25.774368 0.419019 0.204205 -40.229695 -0.000001 0.000000 -0.000001 6.156612 3.105621 -12.086568 0.046339 0.294783 -25.998248 0.367056 0.819727 -38.012974 -0.000002 -0.000002 0.000001 -19.283603 2.435064 17.604316 0.000000 0.000000 0.000000 8.641519 1.247388 57.688980 166.356484 130.070735 -163.974988 37.221758 -12.729381 -5.220899 0.599723 8.499100 -11.216222 -1.533874 -11.737314 3.853660 1.589244 -7.126494 -7.113926 0.000002 -0.000000 0.000001 19.435264 11.169385 -18.716849 -0.123437 -0.317761 12.657287 -0.110359 -0.287232 17.878259 -0.000000 0.000001 -0.000001 4.409534 2.483058 -10.192947 0.320997 -0.439982 21.511939 0.436249 0.169457 33.666761 0.000000 -0.000001 0.000000 -6.959328 -10.652405 0.350513 0.113834 -0.053228 20.777731 0.397433 -0.465531 27.886578 0.000001 0.000001 -0.000000 8.389008 -0.575145 -0.140926 86.270924 -17.339791 -2.197265 15.777375 -1.753670 -28.382153 -0.383187 -0.711378 -0.457322 0.000000 0.000000 0.000001 -5.363316 14.143688 -8.662790 65.267389 13.935178 -13.573376 50.583121 10.190116 24.724108 12.048134 -3.618673 -4.065836 -0.000001 -0.000001 0.000002 
